<svg xmlns="http://www.w3.org/2000/svg" width="1800" height="362" viewBox="0 0 1800 362" version="1.1">
	<path d="M 0 181 L 0 362 126.250 361.999 C 203.580 361.999, 256.762 361.606, 263.500 360.985 C 339.979 353.943, 400.730 305.387, 415.233 239.712 C 418.705 223.987, 418.705 138.013, 415.233 122.288 C 400.730 56.613, 339.979 8.057, 263.500 1.015 C 256.762 0.394, 203.580 0.001, 126.250 0.001 L 0 0 0 181 M 1556.107 1.143 C 1476.214 9.494, 1409.506 70.352, 1393.479 149.509 C 1389.426 169.527, 1388.895 185.242, 1389.208 276 L 1389.500 360.500 1432 360.500 L 1474.500 360.500 1475.004 264.500 L 1475.508 168.500 1478.312 159.536 C 1489.497 123.774, 1516.225 97.987, 1552.129 88.317 C 1557.837 86.780, 1566.648 86.566, 1636.750 86.261 L 1715 85.920 1715 223.460 L 1715 361 1757.500 361 L 1800 361 1800 180.500 L 1800 0 1682.250 0.133 C 1617.487 0.206, 1560.723 0.661, 1556.107 1.143 M 465.001 90.750 C 465.001 145.227, 465.411 184.823, 466.043 191.500 C 474.582 281.721, 544.972 351.971, 635.856 360.974 C 642.276 361.610, 690.450 362, 762.606 362 L 879 362 879 181.500 L 879 1 836 1 L 793 1 793 138.540 L 793 276.080 714.750 275.747 C 638.521 275.423, 636.293 275.359, 628.500 273.276 C 598.236 265.186, 574.920 246.174, 561.479 218.626 C 551.002 197.155, 551.619 204.568, 551.252 95.750 L 550.933 1 507.966 1 L 465 1 465.001 90.750 M 927 181.500 L 927 362 970 362 L 1013 362 1013 224.500 L 1013 87 1088.093 87 C 1160.073 87, 1163.607 87.086, 1173.343 89.068 C 1213.927 97.333, 1244.674 128.144, 1252.972 168.863 C 1254.922 178.432, 1255 182.331, 1255 270.407 L 1255 362 1298.010 362 L 1341.020 362 1340.911 270.250 C 1340.852 219.787, 1340.380 174.450, 1339.864 169.500 C 1330.601 80.632, 1259.612 10.442, 1170.500 2.039 C 1163.636 1.392, 1115.788 1.001, 1043.250 1.001 L 927 1 927 181.500 M 81.461 71.250 C 81.199 71.938, 81.101 121.775, 81.242 182 L 81.500 291.500 164.500 291.791 C 219.857 291.985, 250.733 291.718, 257.208 290.989 C 295.714 286.653, 326.926 262.007, 334.444 230 C 336.684 220.463, 336.684 141.537, 334.444 132 C 327.005 100.329, 296.126 75.694, 258.026 71.036 C 244.903 69.432, 82.079 69.629, 81.461 71.250" stroke="none" fill="#FFFFFF" fill-rule="evenodd"/>
</svg>